<svg version="1.1" id="Layer_1" xmlns="http://www.w3.org/2000/svg" x="0px" y="0px" width="30px" height="30px" viewBox="0 0 30 30" xml:space="preserve" enable-background="new 0 0 30 30">
  <path fill="#FFFFFF" id="D" d="M28.1 14.6c.8-4.4.8-13-13-14.5-3.6-.4-9.3.6-13.3 1.3 0 0-.1 0-.1.1v.3c.1.3.5.9 1 1.1.3.2 1.2.1 1.3.1 12.5-1.1 21.5 1.6 19.9 10.8-.9 5.3-4.4 11.9-14 11.9-1.9 0-2.2-.2-1.9-1.7 0-.2 3-16.1 3.2-17.7 0-.1 0-.1-.1-.1s-2.2-.5-2.7 1.5c-.2.4-5.3 19.2-5.5 20.2-.3 1.4.6 2.1 6.8 2.1 15.6 0 17.9-12.9 18.4-15.4z"/>
</svg>